<svg width="657" height="642" viewBox="0 0 657 642" fill="none" xmlns="http://www.w3.org/2000/svg">
<path d="M27 10C15.9543 10 7 18.9543 7 30V612C7 623.046 15.9543 632 27 632H117C128.046 632 137 623.046 137 612V30C137 18.9543 128.046 10 117 10H27ZM187 47C175.954 47 167 55.9543 167 67V612C167 623.046 175.954 632 187 632H277C288.046 632 297 623.046 297 612V67C297 55.9543 288.046 47 277 47H187ZM326.517 130.392C322.365 120.156 327.298 108.493 337.534 104.342L420.936 70.5167C431.172 66.3654 442.835 71.298 446.986 81.5339L642.961 564.749C647.112 574.985 642.179 586.648 631.944 590.8L548.542 624.624C538.306 628.776 526.643 623.843 522.491 613.607L326.517 130.392Z" fill="#FFFFFF"/>
<path d="M27 10C15.9543 10 7 18.9543 7 30V612C7 623.046 15.9543 632 27 632H117C128.046 632 137 623.046 137 612V30C137 18.9543 128.046 10 117 10H27ZM187 47C175.954 47 167 55.9543 167 67V612C167 623.046 175.954 632 187 632H277C288.046 632 297 623.046 297 612V67C297 55.9543 288.046 47 277 47H187ZM326.517 130.392C322.365 120.156 327.298 108.493 337.534 104.342L420.936 70.5167C431.172 66.3654 442.835 71.298 446.986 81.5339L642.961 564.749C647.112 574.985 642.179 586.648 631.944 590.8L548.542 624.624C538.306 628.776 526.643 623.843 522.491 613.607L326.517 130.392Z" stroke="#FFFFFF"/>
</svg>
