<svg width="225" height="50" viewBox="0 0 225 50" fill="none" xmlns="http://www.w3.org/2000/svg">
<g clip-path="url(#clip0_10_2162)">
<mask id="mask0_10_2162" style="mask-type:luminance" maskUnits="userSpaceOnUse" x="55" y="11" width="170" height="39">
<path d="M225 11H55V49.3913H225V11Z" fill="white"/>
</mask>
<g mask="url(#mask0_10_2162)">
<path d="M59.7304 29.851V39.3901H56.0968V11.9291H63.8181C64.9742 11.9291 66.0891 12.1631 67.1626 12.6311C68.2362 13.0716 69.1858 13.7048 70.0116 14.5307C70.8374 15.3841 71.4706 16.3614 71.911 17.4626C72.379 18.5363 72.6129 19.6787 72.6129 20.8901C72.6129 22.1014 72.379 23.2576 71.911 24.3588C71.4706 25.4325 70.8374 26.3823 70.0116 27.2082C69.1858 28.0341 68.2362 28.681 67.1626 29.149C66.0891 29.617 64.9742 29.851 63.8181 29.851H59.7304ZM59.7304 15.6869V26.1758H63.8181C65.2495 26.1758 66.4607 25.6527 67.4516 24.6066C68.4701 23.588 68.9794 22.3492 68.9794 20.8901C68.9794 19.4585 68.4701 18.2334 67.4516 17.2148C66.4332 16.1962 65.222 15.6869 63.8181 15.6869H59.7304ZM91.4081 39.3901V36.2517C90.5271 37.2703 89.5087 38.0825 88.3526 38.6881C87.1965 39.2938 85.9715 39.5966 84.6778 39.5966C83.2464 39.5966 81.8975 39.3351 80.6313 38.812C79.3926 38.289 78.2915 37.5456 77.3281 36.5821C76.3646 35.6461 75.6077 34.5449 75.0571 33.2785C74.5341 31.9846 74.2726 30.6356 74.2726 29.2316C74.2726 27.8276 74.5341 26.4924 75.0571 25.226C75.6077 23.9321 76.3646 22.8034 77.3281 21.8398C78.2915 20.8763 79.3926 20.133 80.6313 19.6099C81.8975 19.0869 83.2464 18.8253 84.6778 18.8253C85.9991 18.8253 87.2378 19.1006 88.3939 19.6512C89.5774 20.2018 90.5823 20.9726 91.4081 21.9637V19.2383H95.1242V39.3901H91.4081ZM84.6778 22.5006C83.7694 22.5006 82.8885 22.6795 82.0352 23.0374C81.2094 23.3677 80.4937 23.8358 79.8881 24.4414C79.2825 25.0471 78.8008 25.7766 78.4429 26.63C78.1126 27.4559 77.9474 28.3231 77.9474 29.2316C77.9474 30.1401 78.1126 31.0073 78.4429 31.8332C78.8008 32.6591 79.2825 33.3749 79.8881 33.9805C80.4937 34.5862 81.2094 35.068 82.0352 35.4258C82.8885 35.7562 83.7694 35.9214 84.6778 35.9214C85.5862 35.9214 86.4533 35.7562 87.2791 35.4258C88.1049 35.068 88.8207 34.5862 89.4262 33.9805C90.0316 33.3749 90.4997 32.6591 90.83 31.8332C91.1878 31.0073 91.3668 30.1401 91.3668 29.2316C91.3668 28.3231 91.1878 27.4559 90.83 26.63C90.4997 25.7766 90.0316 25.0471 89.4262 24.4414C88.8207 23.8358 88.1049 23.3677 87.2791 23.0374C86.4533 22.6795 85.5862 22.5006 84.6778 22.5006ZM109.688 39.7618C108.119 39.7618 106.812 39.514 105.766 39.0185C104.72 38.4954 103.77 37.6833 102.917 36.5821V48.1859H99.242V19.2383H102.917V22.1289C103.77 21.0828 104.789 20.2431 105.972 19.6099C107.156 18.9767 108.395 18.6601 109.688 18.6601C111.092 18.6601 112.427 18.9354 113.694 19.486C114.987 20.0091 116.102 20.7662 117.038 21.7572C118.002 22.7483 118.745 23.8908 119.268 25.1847C119.818 26.4511 120.094 27.8001 120.094 29.2316C120.094 30.6632 119.818 32.0121 119.268 33.2785C118.745 34.5449 118.002 35.6736 117.038 36.6647C116.102 37.6282 114.987 38.3853 113.694 38.9359C112.427 39.4865 111.092 39.7618 109.688 39.7618ZM109.688 22.418C108.78 22.418 107.913 22.5969 107.087 22.9548C106.261 23.2852 105.546 23.7669 104.94 24.4001C104.335 25.0333 103.853 25.7766 103.495 26.63C103.137 27.4559 102.958 28.3231 102.958 29.2316C102.958 30.1401 103.137 31.0073 103.495 31.8332C103.853 32.6591 104.335 33.3886 104.94 34.0218C105.546 34.655 106.261 35.1505 107.087 35.5084C107.913 35.8663 108.78 36.0453 109.688 36.0453C110.597 36.0453 111.464 35.8663 112.29 35.5084C113.116 35.1505 113.831 34.655 114.437 34.0218C115.042 33.3886 115.51 32.6591 115.841 31.8332C116.198 31.0073 116.377 30.1401 116.377 29.2316C116.377 28.3231 116.198 27.4559 115.841 26.63C115.51 25.7766 115.042 25.0333 114.437 24.4001C113.831 23.7669 113.116 23.2852 112.29 22.9548C111.464 22.5969 110.597 22.418 109.688 22.418ZM133.006 22.707C132.346 22.4042 131.754 22.2528 131.231 22.2528C130.13 22.2528 129.221 22.6382 128.506 23.409C127.735 24.2349 127.349 25.1847 127.349 26.2584V39.3901H123.798V26.2584C123.798 24.7718 124.17 23.409 124.913 22.1702C125.684 20.9314 126.73 19.9678 128.051 19.2796C129.042 18.8115 130.102 18.5775 131.231 18.5775C132.139 18.5775 133.006 18.7427 133.832 19.0731C134.658 19.4034 135.525 19.9403 136.433 20.6836L133.006 22.707ZM149.851 39.5966C148.557 39.5966 147.305 39.2938 146.093 38.6881C144.91 38.0825 143.877 37.2566 142.996 36.2104V39.3901H139.363V11.9704H142.996V21.716C143.602 20.8625 144.497 20.1055 145.68 19.4447C146.892 18.784 148.282 18.4537 149.851 18.4537C151.255 18.4537 152.603 18.7289 153.897 19.2796C155.191 19.8302 156.306 20.5872 157.242 21.5508C158.205 22.5418 158.948 23.6843 159.471 24.9782C160.022 26.2446 160.297 27.5936 160.297 29.0251C160.297 30.4567 160.022 31.8194 159.471 33.1133C158.948 34.3797 158.205 35.5084 157.242 36.4995C156.306 37.4631 155.191 38.2201 153.897 38.7707C152.603 39.3213 151.255 39.5966 149.851 39.5966ZM149.851 22.2115C148.942 22.2115 148.061 22.3904 147.208 22.7483C146.382 23.0787 145.666 23.5604 145.061 24.1936C144.456 24.8268 143.974 25.5701 143.616 26.4236C143.258 27.2495 143.079 28.1167 143.079 29.0251C143.079 30.8696 143.74 32.4801 145.061 33.8566C145.666 34.4898 146.382 34.9854 147.208 35.3432C148.061 35.7011 148.942 35.8801 149.851 35.8801C150.759 35.8801 151.626 35.7011 152.452 35.3432C153.278 34.9854 153.994 34.4898 154.599 33.8566C155.92 32.4801 156.581 30.8696 156.581 29.0251C156.581 28.1167 156.402 27.2495 156.044 26.4236C155.686 25.5701 155.205 24.8268 154.599 24.1936C153.994 23.5604 153.278 23.0787 152.452 22.7483C151.626 22.3904 150.759 22.2115 149.851 22.2115ZM179.916 39.3901V36.2517C179.035 37.2703 178.017 38.0825 176.861 38.6881C175.705 39.2938 174.48 39.5966 173.186 39.5966C171.755 39.5966 170.406 39.3351 169.139 38.812C167.901 38.289 166.8 37.5456 165.836 36.5821C164.873 35.6461 164.116 34.5449 163.565 33.2785C163.042 31.9846 162.781 30.6356 162.781 29.2316C162.781 27.8276 163.042 26.4924 163.565 25.226C164.116 23.9321 164.873 22.8034 165.836 21.8398C166.8 20.8763 167.901 20.133 169.139 19.6099C170.406 19.0869 171.755 18.8253 173.186 18.8253C174.507 18.8253 175.746 19.1006 176.902 19.6512C178.086 20.2018 179.09 20.9726 179.916 21.9637V19.2383H183.632V39.3901H179.916ZM173.186 22.5006C172.277 22.5006 171.396 22.6795 170.543 23.0374C169.717 23.3677 169.002 23.8358 168.396 24.4414C167.791 25.0471 167.309 25.7766 166.951 26.63C166.621 27.4559 166.456 28.3231 166.456 29.2316C166.456 30.1401 166.621 31.0073 166.951 31.8332C167.309 32.6591 167.791 33.3749 168.396 33.9805C169.002 34.5862 169.717 35.068 170.543 35.4258C171.396 35.7562 172.277 35.9214 173.186 35.9214C174.094 35.9214 174.961 35.7562 175.787 35.4258C176.613 35.068 177.329 34.5862 177.934 33.9805C178.54 33.3749 179.008 32.6591 179.338 31.8332C179.696 31.0073 179.875 30.1401 179.875 29.2316C179.875 28.3231 179.696 27.4559 179.338 26.63C179.008 25.7766 178.54 25.0471 177.934 24.4414C177.329 23.8358 176.613 23.3677 175.787 23.0374C174.961 22.6795 174.094 22.5006 173.186 22.5006ZM196.853 39.5966C195.449 39.5966 194.114 39.3351 192.848 38.812C191.609 38.2614 190.508 37.5044 189.545 36.5408C188.609 35.6048 187.866 34.5036 187.315 33.2372C186.792 31.9433 186.531 30.5943 186.531 29.1903C186.531 27.7863 186.792 26.4511 187.315 25.1847C187.866 23.8908 188.609 22.7758 189.545 21.8398C190.508 20.8763 191.609 20.133 192.848 19.6099C194.114 19.0593 195.449 18.784 196.853 18.784C200.101 18.784 202.854 20.1605 205.111 22.9135L201.891 24.7718C200.459 23.2576 198.78 22.5006 196.853 22.5006C195.945 22.5006 195.078 22.6795 194.252 23.0374C193.454 23.3677 192.752 23.8358 192.146 24.4414C191.541 25.0471 191.059 25.7628 190.701 26.5887C190.343 27.4146 190.164 28.2818 190.164 29.1903C190.164 30.0988 190.343 30.966 190.701 31.7919C191.059 32.6178 191.541 33.3336 192.146 33.9392C192.752 34.5449 193.454 35.0267 194.252 35.3845C195.078 35.7149 195.945 35.8801 196.853 35.8801C198.78 35.8801 200.459 35.123 201.891 33.6089L205.111 35.4671C202.854 38.2201 200.101 39.5966 196.853 39.5966ZM218.748 39.3901L212.472 31.7506V39.3901H208.839V11.9291H212.472V23.7807L218.088 18.495H223.497L213.711 27.5798L223.538 39.3901H218.748Z" fill="black"/>
</g>
</g>
<path d="M11.6709 4.03833H5.76133C5.04206 4.03833 4.45898 4.6215 4.45898 5.34087V43.4153C4.45898 44.1347 5.04206 44.7179 5.76133 44.7179H11.6709C12.3902 44.7179 12.9733 44.1347 12.9733 43.4153V5.34087C12.9733 4.6215 12.3902 4.03833 11.6709 4.03833Z" fill="#DE9E36"/>
<path d="M24.2708 8.43677H18.3612C17.6419 8.43677 17.0588 9.01993 17.0588 9.73931V43.4152C17.0588 44.1346 17.6419 44.7178 18.3612 44.7178H24.2708C24.99 44.7178 25.5731 44.1346 25.5731 43.4152V9.73931C25.5731 9.01993 24.99 8.43677 24.2708 8.43677Z" fill="#DE9E36"/>
<path d="M35.4783 10.2014L29.8274 11.8169C29.1358 12.0146 28.7355 12.7356 28.9331 13.4273L37.6141 43.8006C37.8118 44.4922 38.5327 44.8927 39.2242 44.6949L44.8751 43.0794C45.5667 42.8817 45.967 42.1607 45.7694 41.469L37.0884 11.0958C36.8907 10.4041 36.1698 10.0037 35.4783 10.2014Z" fill="#DE9E36"/>
<defs>
<clipPath id="clip0_10_2162">
<rect width="170" height="38.3913" fill="white" transform="translate(55 11)"/>
</clipPath>
</defs>
</svg>
